<svg width="153" height="32" viewBox="0 0 153 32" fill="none" xmlns="http://www.w3.org/2000/svg">
<path fill-rule="evenodd" clip-rule="evenodd" d="M5.70867 0H25.3883C28.5283 0 31.0976 2.56923 31.0976 5.70867V25.3878C31.0976 28.5278 28.5283 31.097 25.3883 31.097H5.70867C2.56869 31.097 0 28.5278 0 25.3878V5.70867C0 2.56923 2.56869 0 5.70867 0Z" fill="white"/>
<path fill-rule="evenodd" clip-rule="evenodd" d="M19.0043 9.8494H15.6866L9.7739 23.3216H5.97241C8.48257 17.7391 10.9117 12.1314 13.4095 6.54297L17.6271 6.56176C18.1211 7.65603 18.6086 8.75352 19.0994 9.84887H19.0043V9.8494Z" fill="#003452"/>
<path fill-rule="evenodd" clip-rule="evenodd" d="M18.2384 15.9668H21.7274C22.8641 18.4163 23.9938 20.869 25.1246 23.3217H21.2946L19.2817 19.0837H14.9417C14.3011 18.0431 13.6546 17.0058 13.0098 15.9673H18.2384V15.9668Z" fill="#0087CF"/>
<path fill-rule="evenodd" clip-rule="evenodd" d="M19.2817 19.0832L21.7274 15.9668H18.2384H13.0098L14.9417 19.0832H19.2817Z" fill="#0099EB"/>
<path d="M151.011 30.6111C152.32 30.6111 152.939 29.9574 152.939 29.1928C152.939 27.4443 150.112 28.1046 150.112 27.0891C150.112 26.7259 150.412 26.4407 151.147 26.4407C151.563 26.4407 152.033 26.5635 152.462 26.8157L152.742 26.1277C152.326 25.8556 151.727 25.7051 151.155 25.7051C149.848 25.7051 149.234 26.3601 149.234 27.13C149.234 28.8996 152.069 28.2261 152.069 29.2549C152.069 29.6088 151.756 29.8742 151.012 29.8742C150.426 29.8742 149.82 29.6563 149.438 29.35L149.132 30.038C149.525 30.3787 150.268 30.6111 151.011 30.6111ZM146.512 25.7724V29.0026L143.881 25.7724H143.152V30.5425H144.032V27.3123L146.662 30.5425H147.391V25.7724H146.512ZM138.784 29.8346C137.824 29.8346 137.108 29.1321 137.108 28.1574C137.108 27.1828 137.824 26.4816 138.784 26.4816C139.744 26.4816 140.46 27.1842 140.46 28.1574C140.461 29.1321 139.745 29.8346 138.784 29.8346ZM138.784 30.6111C140.263 30.6111 141.352 29.5758 141.352 28.1588C141.352 26.7418 140.261 25.7064 138.784 25.7064C137.305 25.7064 136.215 26.7497 136.215 28.1588C136.215 29.5679 137.306 30.6111 138.784 30.6111ZM133.523 30.5425H134.409V25.7724H133.523V30.5425ZM129.528 30.5425H130.414V26.5225H131.995V25.7724H127.948V26.5225H129.529V30.5425H129.528ZM124.465 30.6111C125.765 30.6111 126.55 29.8544 126.55 28.4652V25.7737H125.678V28.4308C125.678 29.412 125.242 29.8346 124.473 29.8346C123.703 29.8346 123.26 29.412 123.26 28.4308V25.7737H122.374V28.4652C122.373 29.8544 123.156 30.6111 124.465 30.6111ZM117.541 30.5425H120.92V29.7924H118.426V25.7724H117.539V30.5425H117.541ZM113.171 29.8346C112.21 29.8346 111.495 29.1321 111.495 28.1574C111.495 27.1828 112.211 26.4816 113.171 26.4816C114.131 26.4816 114.847 27.1842 114.847 28.1574C114.848 29.1321 114.132 29.8346 113.171 29.8346ZM113.171 30.6111C114.65 30.6111 115.739 29.5758 115.739 28.1588C115.739 26.7418 114.649 25.7064 113.171 25.7064C111.692 25.7064 110.602 26.7497 110.602 28.1588C110.602 29.5679 111.693 30.6111 113.171 30.6111ZM107.276 30.6111C108.585 30.6111 109.204 29.9574 109.204 29.1928C109.204 27.4443 106.377 28.1046 106.377 27.0891C106.377 26.7259 106.676 26.4407 107.412 26.4407C107.828 26.4407 108.298 26.5635 108.727 26.8157L109.007 26.1277C108.591 25.8556 107.992 25.7051 107.42 25.7051C106.111 25.7051 105.498 26.3601 105.498 27.13C105.498 28.8996 108.332 28.2261 108.332 29.2549C108.332 29.6088 108.019 29.8742 107.276 29.8742C106.69 29.8742 106.083 29.6563 105.702 29.35L105.395 30.038C105.79 30.3787 106.534 30.6111 107.276 30.6111ZM101.053 29.589C100.747 29.766 100.413 29.8346 100.072 29.8346C99.0644 29.8346 98.3487 29.1255 98.3487 28.1574C98.3487 27.1696 99.0644 26.4816 100.08 26.4816C100.591 26.4816 101.02 26.652 101.395 27.027L101.954 26.4816C101.505 25.9705 100.837 25.7051 100.039 25.7051C98.5468 25.7051 97.456 26.7338 97.456 28.1574C97.456 29.5824 98.5468 30.6098 100.025 30.6098C100.699 30.6098 101.394 30.4051 101.892 30.0037V28.102H101.053V29.589V29.589ZM94.7765 25.7724V29.0026L92.1459 25.7724H91.4169V30.5425H92.2964V27.3123L94.927 30.5425H95.656V25.7724H94.7765ZM88.3849 30.5425H89.271V25.7724H88.3849V30.5425ZM84.7176 30.6111C86.0263 30.6111 86.6456 29.9574 86.6456 29.1928C86.6456 27.4443 83.8183 28.1046 83.8183 27.0891C83.8183 26.7259 84.118 26.4407 84.8536 26.4407C85.2696 26.4407 85.7397 26.5635 86.1689 26.8157L86.4489 26.1277C86.0329 25.8556 85.4333 25.7051 84.8615 25.7051C83.5528 25.7051 82.9401 26.3601 82.9401 27.13C82.9401 28.8996 85.7754 28.2261 85.7754 29.2549C85.7754 29.6088 85.4624 29.8742 84.7189 29.8742C84.1326 29.8742 83.5264 29.6563 83.1448 29.35L82.8384 30.038C83.2319 30.3787 83.9741 30.6111 84.7176 30.6111ZM80.2051 30.5425H81.0913V25.7724H80.2051V30.5425ZM75.2503 28.7438L76.143 26.6586L77.0423 28.7438H75.2503ZM77.8122 30.5425H78.7393L76.5854 25.7724H75.7138L73.5679 30.5425H74.4804L74.9505 29.4384H77.3355L77.8122 30.5425ZM71.5012 27.4694C71.5012 28.069 71.0997 28.4242 70.3219 28.4242H69.2865V26.5225H70.3219C71.0997 26.5225 71.5012 26.8699 71.5012 27.4694ZM72.4757 30.5425L71.3783 28.9749C72.0254 28.7227 72.3939 28.1918 72.3939 27.4681C72.3939 26.4129 71.6174 25.7711 70.3628 25.7711H68.4004V30.5412H69.2865V29.1505H70.3628C70.4249 29.1505 70.4856 29.1505 70.5464 29.1439L71.521 30.5412H72.4757V30.5425ZM62.7985 29.7937V26.5239H63.9566C65.0197 26.5239 65.7077 27.171 65.7077 28.1588C65.7077 29.1466 65.0197 29.7937 63.9566 29.7937H62.7985ZM61.9137 30.5425H63.9989C65.5453 30.5425 66.6018 29.589 66.6018 28.1574C66.6018 26.7272 65.5453 25.7724 63.9989 25.7724H61.9137V30.5425ZM58.8935 25.7724V29.0026L56.2629 25.7724H55.5339V30.5425H56.4135V27.3123L59.0441 30.5425H59.773V25.7724H58.8935ZM51.349 30.6111C52.6511 30.6111 53.4342 29.8544 53.4342 28.4652V25.7737H52.5626V28.4308C52.5626 29.412 52.1268 29.8346 51.3569 29.8346C50.587 29.8346 50.1446 29.412 50.1446 28.4308V25.7737H49.2585V28.4652C49.2572 29.8544 50.0403 30.6111 51.349 30.6111ZM47.58 26.5159V25.7737H44.0977V30.5438H44.9838V28.7174H47.2869V27.9673H44.9838V26.5159H47.58Z" fill="#0099EB"/>
<path fill-rule="evenodd" clip-rule="evenodd" d="M61.0897 4.31047H56.7634L49.0538 21.8772H44.0977C47.3701 14.598 50.5382 7.2858 53.7947 0L59.2937 0.023772C59.9368 1.45003 60.5733 2.88157 61.2138 4.31047H61.0897V4.31047Z" fill="white"/>
<path fill-rule="evenodd" clip-rule="evenodd" d="M60.0913 12.2871H64.6407C66.1224 15.4803 67.5962 18.6789 69.07 21.8761H64.0768L61.4515 16.3506H55.7928C54.9582 14.993 54.1143 13.6407 53.2744 12.2871H60.0913Z" fill="#0087CF"/>
<path d="M110.189 9.749C111.03 9.749 111.771 9.97879 112.413 10.4397C113.053 10.9006 113.495 11.5913 113.735 12.513H106.494C106.715 11.6322 107.179 10.9508 107.891 10.4701C108.602 9.98935 109.368 9.749 110.189 9.749ZM117.79 13.9551C117.71 11.7114 116.935 9.87446 115.462 8.4416C113.99 7.00874 112.232 6.29297 110.189 6.29297C108.006 6.29297 106.168 7.03911 104.676 8.5314C103.183 10.0237 102.437 11.9307 102.437 14.2549C102.437 16.5792 103.178 18.4809 104.661 19.9639C106.143 21.4456 107.965 22.1865 110.13 22.1865C111.812 22.1865 113.285 21.7956 114.546 21.0151C115.807 20.2346 116.759 19.0818 117.4 17.5604L113.854 16.809C113.073 18.1309 111.831 18.7912 110.128 18.7912C109.207 18.7912 108.401 18.4756 107.709 17.8443C107.018 17.2131 106.572 16.3679 106.373 15.3061H117.789V13.9551H117.79Z" fill="white"/>
<path d="M128.561 6.29492C126.618 6.29492 125.046 6.8958 123.844 8.09755V6.74525H119.878V21.7381H123.844V15.0981C123.844 11.6526 125.085 9.93056 127.569 9.93056C128.491 9.93056 129.227 10.2501 129.777 10.892C130.328 11.5325 130.604 12.3843 130.604 13.446V21.7381H134.57V12.6048C134.57 10.7414 134.019 9.22535 132.918 8.05265C131.815 6.87995 130.364 6.29492 128.561 6.29492Z" fill="white"/>
<path d="M144.707 18.7333C143.485 18.7333 142.479 18.3279 141.688 17.517C140.897 16.7049 140.501 15.6193 140.501 14.2565C140.501 12.8949 140.897 11.8028 141.688 10.9813C142.479 10.1599 143.485 9.74921 144.707 9.74921C145.828 9.74921 146.82 10.1705 147.681 11.0117C148.542 11.8529 148.972 12.9345 148.972 14.2565C148.972 15.5784 148.542 16.6547 147.681 17.4867C146.82 18.3173 145.829 18.7333 144.707 18.7333ZM152.939 0.0136719H148.973V7.94657C147.652 6.84519 146 6.29449 144.016 6.29449C142.054 6.29449 140.336 7.0512 138.863 8.5633C137.391 10.0754 136.655 11.9744 136.655 14.2565C136.655 16.5398 137.385 18.4322 138.849 19.9351C140.31 21.4379 142.034 22.188 144.016 22.188C145.978 22.188 147.632 21.6479 148.973 20.5663V21.7377H152.939V0.0136719Z" fill="white"/>
<path fill-rule="evenodd" clip-rule="evenodd" d="M85.4387 14.2565C85.4387 16.5808 86.2152 18.4824 87.7669 19.9655C89.3186 21.4472 91.2163 22.1881 93.46 22.1881C95.2626 22.1881 96.8605 21.6783 98.2524 20.6562C99.462 19.7687 100.306 18.6237 100.781 17.2213L97.0572 16.2744C96.3587 17.7931 95.1596 18.5524 93.46 18.5524C92.2186 18.5524 91.211 18.1563 90.4411 17.3652C89.6699 16.5742 89.2843 15.5375 89.2843 14.2552C89.2843 12.9729 89.6699 11.9375 90.4411 11.1451C91.2123 10.3541 92.2186 9.9579 93.46 9.9579C95.1596 9.9579 96.3587 10.7173 97.0572 12.236L100.781 11.2891C100.306 9.88659 99.462 8.74162 98.2524 7.85417C96.8605 6.83202 95.2626 6.32227 93.46 6.32227C91.2163 6.32227 89.3186 7.06313 87.7669 8.54485C86.2139 10.0305 85.4387 11.9322 85.4387 14.2565Z" fill="white"/>
<path fill-rule="evenodd" clip-rule="evenodd" d="M72.0835 13.9862C72.8151 14.7271 73.861 15.2381 75.2225 15.5181L78.2876 16.1494C79.389 16.3897 79.9397 16.84 79.9397 17.5004C79.9397 17.9414 79.7297 18.302 79.3084 18.5819C78.8872 18.8619 78.3167 19.0019 77.5956 19.0019C75.8657 19.0019 74.8554 18.4274 74.5622 17.2785L70.6956 18.6704C71.0191 19.7097 71.6768 20.5153 72.6685 21.0911C73.931 21.8227 75.4523 22.1872 77.2351 22.1872C79.2384 22.1872 80.835 21.7567 82.0275 20.8956C83.22 20.0346 83.8156 18.7919 83.8156 17.1702C83.8156 16.1282 83.4802 15.2315 82.8093 14.4814C82.1384 13.73 81.1625 13.215 79.8802 12.9337L76.3054 12.1519C75.4048 11.9512 74.9531 11.5312 74.9531 10.8894C74.9531 10.4892 75.1142 10.1432 75.4338 9.8527C75.7547 9.56217 76.275 9.4169 76.9961 9.4169C77.7977 9.4169 78.4527 9.60707 78.9638 9.9874C79.4048 10.3162 79.6848 10.7335 79.805 11.2407L83.4128 9.9425C83.0563 8.97978 82.4144 8.17288 81.4874 7.52314C80.316 6.70173 78.8581 6.29102 77.1163 6.29102C75.2529 6.29102 73.7659 6.75191 72.654 7.67369C71.5421 8.59416 70.9861 9.78667 70.9861 11.2486C70.9861 12.3341 71.3519 13.2453 72.0835 13.9862Z" fill="white"/>
<path fill-rule="evenodd" clip-rule="evenodd" d="M61.4516 16.3506L64.6408 12.2871H60.0914H53.2732L55.7929 16.3506H61.4516Z" fill="#0099EB"/>
</svg>
