<svg width="73" height="51" viewBox="0 0 73 51" fill="none" xmlns="http://www.w3.org/2000/svg">
<rect x="0.5" y="0.528809" width="72" height="49" rx="3.5" fill="white" stroke="#E4E4E7"/>
<path fill-rule="evenodd" clip-rule="evenodd" d="M17.4078 18.6393C18.3882 18.7219 19.3685 18.1437 19.9813 17.4106C20.5838 16.6568 20.9821 15.6449 20.8799 14.6123C20.0119 14.6536 18.9396 15.1905 18.3269 15.9443C17.7652 16.5948 17.2852 17.648 17.4078 18.6393ZM29.0702 31.9387V15.8411H35.0443C38.1284 15.8411 40.2831 17.9888 40.2831 21.1278C40.2831 24.2668 38.0875 26.4352 34.9626 26.4352H31.5415V31.9387H29.0702ZM20.8697 18.8355C20.006 18.7852 19.2179 19.0981 18.5813 19.3509C18.1717 19.5135 17.8248 19.6512 17.5609 19.6512C17.2648 19.6512 16.9035 19.5061 16.498 19.3432C15.9666 19.1298 15.359 18.8857 14.7219 18.8975C13.2616 18.9181 11.9034 19.7545 11.1579 21.0865C9.62603 23.7505 10.7596 27.6949 12.2404 29.8633C12.9654 30.9371 13.8335 32.1143 14.9772 32.073C15.4804 32.0538 15.8424 31.8985 16.217 31.7377C16.6482 31.5527 17.0963 31.3605 17.7958 31.3605C18.4711 31.3605 18.8995 31.5477 19.3108 31.7274C19.7018 31.8983 20.0773 32.0624 20.6348 32.0523C21.8194 32.0317 22.5649 30.9784 23.29 29.9046C24.0724 28.752 24.4163 27.6272 24.4685 27.4565L24.4746 27.4367C24.4733 27.4355 24.4637 27.431 24.4466 27.4231C24.185 27.302 22.1858 26.3766 22.1666 23.8951C22.1474 21.8122 23.7524 20.7568 24.005 20.5907C24.0204 20.5806 24.0308 20.5738 24.0354 20.5702C23.0142 19.042 21.4211 18.8768 20.8697 18.8355ZM44.797 32.0625C46.3493 32.0625 47.7892 31.2675 48.4428 30.0077H48.4939V31.9386H50.7814V23.926C50.7814 21.6027 48.9432 20.1055 46.1144 20.1055C43.4899 20.1055 41.5496 21.6233 41.4781 23.7091H43.7043C43.8881 22.7179 44.797 22.0673 46.0429 22.0673C47.5543 22.0673 48.4019 22.7798 48.4019 24.0912V24.9792L45.3179 25.165C42.4482 25.3406 40.896 26.528 40.896 28.5931C40.896 30.6789 42.4993 32.0625 44.797 32.0625ZM45.4607 30.1524C44.1433 30.1524 43.3059 29.5122 43.3059 28.5313C43.3059 27.5194 44.1127 26.9308 45.6547 26.8379L48.4018 26.6623V27.571C48.4018 29.0785 47.1355 30.1524 45.4607 30.1524ZM58.369 32.5685C57.3784 35.3874 56.2448 36.3167 53.8348 36.3167C53.6509 36.3167 53.0382 36.2961 52.8952 36.2548V34.3239C53.0484 34.3445 53.4263 34.3652 53.6203 34.3652C54.713 34.3652 55.3257 33.9005 55.7036 32.6924L55.9283 31.98L51.7413 20.2604H54.325L57.2354 29.7703H57.2865L60.197 20.2604H62.7092L58.369 32.5685ZM31.5413 17.9475H34.3905C36.5351 17.9475 37.7605 19.1039 37.7605 21.1381C37.7605 23.1722 36.5351 24.339 34.3803 24.339H31.5413V17.9475Z" fill="black"/>
</svg>
