<svg width="73" height="51" viewBox="0 0 73 51" fill="none" xmlns="http://www.w3.org/2000/svg">
<rect x="0.5" y="0.528809" width="72" height="49" rx="3.5" fill="white" stroke="#E4E4E7"/>
<path d="M43.5081 40.9167H41.7143V35.5049H43.5081C44.1457 35.5049 44.6891 35.6123 45.141 35.8243C45.5929 36.0391 45.9367 36.3478 46.1752 36.7505C46.4136 37.1531 46.5328 37.6417 46.5328 38.2108C46.5328 38.7799 46.4136 39.2604 46.1752 39.6684C45.9367 40.0738 45.5929 40.3852 45.141 40.5972C44.6891 40.812 44.1457 40.9167 43.5081 40.9167ZM43.4498 40.3261C44.24 40.3261 44.8277 40.157 45.2159 39.8161C45.604 39.4778 45.7981 38.9409 45.7981 38.2108C45.7981 37.4806 45.604 36.9437 45.2159 36.6055C44.8277 36.2673 44.24 36.0955 43.4498 36.0955H42.4268V40.3261H43.4498Z" fill="#1D34CB"/>
<path d="M49.3635 40.5036C49.735 40.5036 50.04 40.4606 50.2729 40.372C50.5058 40.2835 50.7165 40.168 50.9022 40.0204H50.9161L50.8579 40.5975C50.7359 40.6969 50.5446 40.7935 50.284 40.8821C50.0234 40.9707 49.7017 41.0163 49.3136 41.0163C48.8922 41.0163 48.5235 40.925 48.2074 40.7452C47.8913 40.5653 47.6446 40.3157 47.4672 39.9962C47.2897 39.6795 47.201 39.3144 47.201 38.9063C47.201 38.4983 47.2869 38.1359 47.4616 37.8165C47.6363 37.4997 47.8747 37.2474 48.1741 37.0648C48.4763 36.8823 48.8146 36.791 49.1916 36.791C49.6269 36.791 49.9818 36.8662 50.2535 37.0165C50.5252 37.1668 50.7248 37.3762 50.8495 37.642C50.9743 37.9104 51.0381 38.2218 51.0381 38.5788C51.0381 38.6272 51.0381 38.6835 51.0298 38.7506C51.0242 38.8178 51.0187 38.8768 51.0076 38.9278H47.8664C47.8664 38.9278 47.8664 38.9386 47.8692 38.9412C47.8692 38.9466 47.8692 38.952 47.8664 38.9547C47.8775 39.4352 48.0133 39.811 48.2795 40.0875C48.5456 40.364 48.9033 40.5009 49.3607 40.5009L49.3635 40.5036ZM49.2027 37.2769C48.834 37.2769 48.5373 37.387 48.3127 37.6044C48.0882 37.8218 47.9496 38.1279 47.8997 38.5171H50.4087V38.4446C50.4087 38.2084 50.3727 38.0017 50.2978 37.8299C50.2257 37.6554 50.101 37.5212 49.9263 37.4245C49.7517 37.3279 49.5105 37.2796 49.2027 37.2796V37.2769Z" fill="#1D34CB"/>
<path d="M53.7689 41.0162C53.5083 41.0162 53.2588 40.9839 53.0176 40.9249C52.7764 40.8631 52.5601 40.7826 52.3661 40.6833C52.172 40.584 52.0112 40.482 51.8837 40.3773V35.293H52.5241V37.7653H52.5685C52.6405 37.5506 52.7598 37.3734 52.9206 37.2311C53.0814 37.0888 53.2643 36.9815 53.4695 36.9063C53.6719 36.8338 53.8743 36.7962 54.0767 36.7962C54.645 36.7962 55.0914 36.9815 55.4158 37.3492C55.7401 37.717 55.901 38.2378 55.901 38.9116C55.901 39.3733 55.8039 39.7598 55.6071 40.0712C55.4102 40.3853 55.1496 40.6215 54.828 40.7799C54.5036 40.9383 54.1515 41.0188 53.7689 41.0188V41.0162ZM53.7689 40.49C54.0545 40.49 54.3068 40.4363 54.5258 40.3289C54.7476 40.2216 54.9195 40.0525 55.0443 39.8189C55.169 39.5854 55.2328 39.282 55.2328 38.9062C55.2328 37.8566 54.792 37.3331 53.9076 37.3331C53.6664 37.3331 53.4418 37.3841 53.2338 37.4861C53.0259 37.5881 52.8568 37.7331 52.7293 37.9183C52.6017 38.1036 52.538 38.3183 52.538 38.5599V40.0981C52.6766 40.2108 52.8485 40.3048 53.0592 40.3799C53.2699 40.4524 53.5056 40.49 53.7662 40.49H53.7689Z" fill="#1D34CB"/>
<path d="M56.6799 35.9102C56.6799 35.8056 56.7187 35.7197 56.7936 35.6499C56.8684 35.5801 56.9655 35.5479 57.0847 35.5479C57.2039 35.5479 57.3009 35.5827 57.3786 35.6499C57.4562 35.7197 57.495 35.8056 57.495 35.9102C57.495 36.0149 57.4562 36.1089 57.3786 36.1787C57.3009 36.2485 57.2011 36.2807 57.0847 36.2807C56.9682 36.2807 56.8712 36.2458 56.7936 36.1787C56.7187 36.1089 56.6799 36.0203 56.6799 35.9102ZM57.4146 36.8927V40.9167H56.7603V36.8927H57.4146Z" fill="#1D34CB"/>
<path d="M59.4526 39.835C59.4526 40.0927 59.5081 40.2646 59.6218 40.3505C59.7354 40.439 59.8824 40.482 60.0626 40.482C60.2289 40.482 60.3731 40.4686 60.4979 40.439C60.6198 40.4095 60.7197 40.3773 60.8001 40.3397H60.8222L60.764 40.8739C60.6892 40.9115 60.581 40.9464 60.4341 40.9732C60.2871 41.0028 60.1374 41.0162 59.985 41.0162C59.6162 41.0162 59.3279 40.933 59.1172 40.7639C58.9065 40.5947 58.8011 40.3182 58.8011 39.9344V37.4191H58.0359L58.1246 36.9976L58.8011 36.9063V36.0446L59.4554 35.9507V36.8902H60.728L60.6476 37.4164H59.4554V39.8297L59.4526 39.835Z" fill="#1D34CB"/>
<path fill-rule="evenodd" clip-rule="evenodd" d="M23.2041 31.2752H18.7817L15.4655 18.2471C15.3081 17.6478 14.9739 17.118 14.4822 16.8683C13.2554 16.2408 11.9034 15.7414 10.4286 15.4895V14.9879H17.5527C18.5359 14.9879 19.2733 15.7414 19.3962 16.6164L21.1169 26.014L25.5371 14.9879H29.8366L23.2041 31.2752ZM32.2945 31.2752H28.118L31.5571 14.9879H35.7337L32.2945 31.2752ZM41.1374 19.5C41.2603 18.6228 41.9977 18.1212 42.858 18.1212C44.2099 17.9953 45.6826 18.2471 46.9117 18.8725L47.6491 15.3658C46.4201 14.8642 45.0681 14.6123 43.8412 14.6123C39.7876 14.6123 36.8379 16.8683 36.8379 19.9994C36.8379 22.3814 38.9272 23.6321 40.4021 24.3855C41.9977 25.1368 42.6122 25.6384 42.4893 26.3897C42.4893 27.5166 41.2603 28.0182 40.0334 28.0182C38.5585 28.0182 37.0837 27.6425 35.7339 27.015L34.9965 30.5239C36.4713 31.1492 38.0669 31.4011 39.5418 31.4011C44.087 31.5249 46.9117 29.271 46.9117 25.8881C46.9117 21.6279 41.1374 21.3782 41.1374 19.5ZM61.5282 31.2752L58.212 14.9879H54.6499C53.9125 14.9879 53.1751 15.4895 52.9293 16.2408L46.7884 31.2752H51.0879L51.946 28.8954H57.2287L57.7204 31.2752H61.5282ZM55.2646 19.3741L56.4915 25.5125H53.0523L55.2646 19.3741Z" fill="#1D34CB"/>
</svg>
