<svg width="73" height="51" viewBox="0 0 73 51" fill="none" xmlns="http://www.w3.org/2000/svg">
<rect x="0.5" y="0.528809" width="72" height="49" rx="3.5" fill="#1F72CD" stroke="#E4E4E7"/>
<path fill-rule="evenodd" clip-rule="evenodd" d="M13.9349 17.7373L7.29999 32.8347H15.2429L16.2276 30.4275H18.4783L19.463 32.8347H28.2059V30.9975L28.985 32.8347H33.5075L34.2865 30.9586V32.8347H52.4694L54.6803 30.49L56.7505 32.8347L66.0896 32.8541L59.4338 25.3281L66.0896 17.7373H56.8954L54.7432 20.0386L52.7381 17.7373H32.9576L31.259 21.6341L29.5206 17.7373H21.5943V19.512L20.7125 17.7373H13.9349ZM41.0872 19.8812H51.5287L54.7222 23.4282L58.0187 19.8812H61.2123L56.36 25.326L61.2123 30.7081H57.8739L54.6803 27.1199L51.367 30.7081H41.0872V19.8812ZM43.6657 24.1018V22.1242V22.1223H50.1808L53.0237 25.285L50.0549 28.465H43.6657V26.306H49.3619V24.1018H43.6657ZM15.4718 19.8812H19.3435L23.7444 30.1188V19.8812H27.9858L31.385 27.2215L34.5177 19.8812H38.7379V30.7145H36.17L36.149 22.2256L32.4054 30.7145H30.1083L26.3436 22.2256V30.7145H21.061L20.0595 28.2858H14.6488L13.6493 30.7124H10.8189L15.4718 19.8812ZM15.5726 26.0406L17.3552 21.7141L19.1358 26.0406H15.5726Z" fill="white"/>
</svg>
