<svg width="73" height="51" viewBox="0 0 73 51" fill="none" xmlns="http://www.w3.org/2000/svg">
<rect x="0.5" y="0.5" width="72" height="49.0571" rx="3.5" fill="white" stroke="#E4E4E7"/>
<path d="M31.2857 47.9714L70.9143 35.9785V44.9714C70.9143 46.6282 69.5711 47.9714 67.9143 47.9714H31.2857Z" fill="#FD6020"/>
<path d="M31.671 19.0032C32.4339 19.0032 33.3061 19.1147 33.9601 19.5627V21.804C33.415 21.1318 32.5429 20.6839 31.671 20.6838C29.9269 20.7959 28.5094 22.3646 28.6183 24.1575V24.3821C28.6184 26.1747 30.0356 27.5195 31.7794 27.5198C32.6515 27.5198 33.415 27.071 33.9601 26.3987V28.6399C33.197 28.9761 32.4337 29.2004 31.5616 29.2004C28.8365 29.2003 26.6563 26.8466 26.6563 24.0452C26.6566 21.1318 28.8369 18.7791 31.671 19.0032ZM48.7852 25.7268L51.4015 19.0032H53.3634L49.3302 29.2004H48.3497L44.3155 19.0032H46.2784L48.7852 25.7268ZM22.9503 18.7786C23.9313 18.7786 24.9119 19.2274 25.6749 19.8997L24.6944 21.2444C24.2584 20.7961 23.7131 20.4592 23.1681 20.4592C22.5141 20.3473 21.9695 20.908 21.8604 21.5803C21.8605 22.1406 22.1874 22.3645 23.2774 22.8127C25.4575 23.7092 26.0024 24.3821 26.1114 25.7268V26.0627C26.0024 27.8556 24.585 29.2002 22.8409 29.0881C21.5329 29.0881 20.2244 28.4155 19.5704 27.1829L20.7696 25.9504C21.0967 26.7348 21.8604 27.2952 22.7325 27.2952H22.8409C23.495 27.2952 24.1495 26.6225 24.1495 25.8381C24.1494 25.3903 23.9313 25.0544 23.6046 24.8303C23.1685 24.6062 22.732 24.3818 22.296 24.2698C20.5519 23.7095 20.0069 22.925 20.0069 21.5803V21.468C20.116 19.8993 21.4242 18.6665 22.9503 18.7786ZM11.6134 19.0032C14.2295 19.1154 16.3005 21.3568 16.1915 24.0461C16.1913 25.5027 15.5373 26.8473 14.4474 27.8557C13.4664 28.64 12.2674 29.0887 11.0685 28.9768H8.34286V19.0032H11.6134ZM63.3927 19.0032C65.5725 19.0033 66.7714 20.0116 66.7716 21.9163C66.8804 23.3728 65.8997 24.606 64.5919 24.8303L67.5343 28.9768H65.2452L62.7384 24.9426H62.5206V28.9768H60.6671V19.0032H63.3927ZM18.8077 28.9758H16.9542V19.0032H18.8077V28.9758ZM59.4679 20.6838H56.089V22.925H59.3595V24.6057H56.089V27.2952H59.4679V28.9758H54.2354V19.0032H59.4679V20.6838ZM13.2481 21.468C12.5941 20.9079 11.6132 20.5719 10.7413 20.6838H10.1964V27.2952H10.7413C11.6133 27.4071 12.5941 27.0712 13.2481 26.511C13.9021 25.8387 14.2295 24.9422 14.2296 23.9338C14.2296 23.0374 13.9021 22.1404 13.2481 21.468ZM62.5206 23.5979H63.0655C64.2644 23.5978 64.8096 23.0369 64.8097 22.0286C64.8096 21.1323 64.2643 20.5726 63.0655 20.5725H62.5206V23.5979Z" fill="black"/>
<path fill-rule="evenodd" clip-rule="evenodd" d="M39.5195 18.7715C36.7943 18.7715 34.5051 21.0127 34.5051 23.9262C34.5051 26.7277 36.6853 29.0809 39.5195 29.193C42.3538 29.305 44.534 26.9518 44.643 24.0383C44.534 21.1247 42.3538 18.7715 39.5195 18.7715V18.7715Z" fill="#FD6020"/>
</svg>
