<svg width="73" height="51" viewBox="0 0 73 51" fill="none" xmlns="http://www.w3.org/2000/svg">
<rect x="0.5" y="0.528809" width="72" height="49" rx="3.5" fill="white" stroke="#E4E4E7"/>
<path d="M27.6798 10.9121C35.5401 10.9121 41.9121 17.3506 41.9123 25.293C41.9123 33.2355 35.5402 39.6748 27.6798 39.6748C19.8195 39.6748 13.4474 33.2355 13.4474 25.293C13.4476 17.3506 19.8196 10.9121 27.6798 10.9121Z" fill="#ED0006"/>
<path d="M46.1435 10.9121C54.0038 10.9121 60.3758 17.3506 60.3759 25.293C60.3759 33.2355 54.0039 39.6748 46.1435 39.6748C38.2832 39.6748 31.9111 33.2355 31.9111 25.293C31.9113 17.3506 38.2833 10.9121 46.1435 10.9121Z" fill="#0099DF"/>
<path d="M36.9112 14.3486C39.9712 16.9863 41.9121 20.9103 41.9122 25.293C41.9122 29.6756 39.971 33.5995 36.9112 36.2373C33.8518 33.5995 31.9112 29.6753 31.9112 25.293C31.9113 20.9106 33.8516 16.9863 36.9112 14.3486Z" fill="#6C6BBD"/>
</svg>
