<svg width="73" height="51" viewBox="0 0 73 51" fill="none" xmlns="http://www.w3.org/2000/svg">
<rect x="0.5" y="0.528809" width="72" height="49" rx="3.5" fill="white" stroke="#E4E4E7"/>
<g clip-path="url(#clip0_1060_18183)">
<mask id="mask0_1060_18183" style="mask-type:luminance" maskUnits="userSpaceOnUse" x="10" y="4" width="55" height="44">
<path d="M64.218 4.16455H10.4286V47.976H64.218V4.16455Z" fill="white"/>
</mask>
<g mask="url(#mask0_1060_18183)">
<path d="M29.9547 39.0154C30.22 39.0072 30.4834 39.0625 30.7231 39.1766C30.9339 39.2719 31.1203 39.4136 31.2687 39.591V37.1963H31.8988V42.7917H31.2533V42.3005C31.105 42.4779 30.9185 42.6196 30.7077 42.7149C30.4681 42.829 30.2046 42.8842 29.9393 42.8761C29.6948 42.8785 29.4524 42.8314 29.2265 42.7377C29.0007 42.6441 28.7962 42.5058 28.6253 42.3312C28.4597 42.1553 28.3293 41.9495 28.2411 41.7248C28.0467 41.2315 28.0467 40.683 28.2411 40.1897C28.3276 39.9641 28.4582 39.758 28.6253 39.5834C28.7916 39.413 28.9901 39.2773 29.2093 39.1842C29.444 39.079 29.6974 39.0216 29.9547 39.0154ZM30.0238 39.6141C29.847 39.6099 29.6714 39.644 29.509 39.7138C29.3561 39.7813 29.2178 39.8777 29.1017 39.9978C28.9924 40.1221 28.9065 40.2652 28.8481 40.42C28.7251 40.7518 28.7251 41.1166 28.8481 41.4485C28.9403 41.6823 29.103 41.8818 29.3136 42.0193C29.5242 42.1568 29.7724 42.2255 30.0238 42.216C30.2006 42.2201 30.3762 42.1861 30.5387 42.1162C30.6892 42.0522 30.8252 41.9582 30.9382 41.8399C31.0516 41.7172 31.1402 41.5739 31.1995 41.4178C31.2617 41.2508 31.293 41.074 31.2917 40.8959C31.2817 40.7292 31.2427 40.5656 31.1764 40.4123C31.1153 40.2571 31.0268 40.1142 30.9152 39.9901C30.8001 39.8743 30.6647 39.7806 30.5156 39.7138C30.3603 39.6472 30.1929 39.6132 30.0238 39.6141ZM34.7112 39.0154C34.9513 39.0129 35.1894 39.0599 35.4104 39.1535C35.6145 39.25 35.7993 39.3826 35.956 39.545C36.1134 39.7213 36.2337 39.9275 36.3095 40.1513C36.4038 40.3961 36.4507 40.6566 36.4478 40.9189C36.4519 40.9597 36.4519 41.0009 36.4478 41.0417V41.1568H33.5432C33.5592 41.331 33.6088 41.5004 33.6892 41.6557C33.7546 41.7943 33.8489 41.9173 33.9658 42.0165C34.0769 42.109 34.2047 42.1793 34.3423 42.2237C34.4889 42.2702 34.6419 42.2935 34.7957 42.2928C35.0036 42.294 35.2098 42.2549 35.4028 42.1777C35.5946 42.1019 35.7716 41.9928 35.9253 41.8553L36.2634 42.2928C36.1545 42.3935 36.0361 42.4834 35.9099 42.5614C35.7931 42.6303 35.6695 42.6868 35.5411 42.7303C35.4145 42.7763 35.283 42.8072 35.1492 42.8224C35.0161 42.8303 34.8827 42.8303 34.7496 42.8224C34.4869 42.8267 34.2259 42.7797 33.9812 42.6842C33.7613 42.5959 33.5624 42.4625 33.3972 42.2928C33.2268 42.1192 33.0935 41.9129 33.0053 41.6864C32.9127 41.4411 32.8658 41.181 32.867 40.9189C32.8649 40.6567 32.9118 40.3964 33.0053 40.1513C33.0918 39.9257 33.2224 39.7196 33.3895 39.545C33.5518 39.3754 33.7482 39.242 33.9658 39.1535C34.2013 39.0542 34.4556 39.007 34.7112 39.0154ZM34.7112 39.5757C34.5586 39.5756 34.4074 39.6042 34.2655 39.6601C34.1378 39.7086 34.0223 39.7846 33.9274 39.8827C33.8269 39.9759 33.746 40.0881 33.6892 40.2127C33.6205 40.3499 33.5763 40.4979 33.5585 40.6502H35.787C35.7687 40.4965 35.7272 40.3464 35.664 40.2051C35.6073 40.08 35.5293 39.9658 35.4335 39.8673C35.3363 39.7775 35.2246 39.7048 35.1031 39.6524C34.975 39.6051 34.84 39.5792 34.7035 39.5757H34.7112ZM39.3832 39.0154C39.6313 39.0156 39.8768 39.0651 40.1055 39.1612C40.3247 39.2543 40.5232 39.39 40.6895 39.5603C40.8565 39.7365 40.9894 39.9421 41.0814 40.1667C41.2297 40.5234 41.2716 40.9153 41.2021 41.2952C41.1325 41.6752 40.9545 42.0269 40.6895 42.3081C40.5211 42.476 40.3231 42.6113 40.1055 42.7073C39.8768 42.8033 39.6313 42.8529 39.3832 42.8531C39.1179 42.8606 38.8546 42.8054 38.6148 42.6919C38.4067 42.5956 38.223 42.4539 38.0769 42.2774V42.7917H37.4468V37.1963H38.0922V39.5834C38.2402 39.4107 38.4236 39.272 38.6301 39.1766C38.863 39.0666 39.118 39.0114 39.3755 39.0154H39.3832ZM39.3063 39.6141C39.1321 39.6108 38.9592 39.6448 38.7992 39.7138C38.649 39.7786 38.5132 39.8726 38.3996 39.9901C38.288 40.1142 38.1995 40.2571 38.1383 40.4123C38.0754 40.5791 38.0442 40.756 38.0461 40.9342C38.0449 41.1124 38.0761 41.2892 38.1383 41.4562C38.1976 41.6123 38.2863 41.7556 38.3996 41.8783C38.5111 41.9983 38.6475 42.0926 38.7992 42.1546C38.9592 42.2236 39.1321 42.2577 39.3063 42.2544C39.4786 42.2604 39.6502 42.2293 39.8093 42.163C39.9684 42.0968 40.1114 41.9971 40.2284 41.8706C40.3403 41.7482 40.4265 41.6047 40.482 41.4485C40.605 41.1166 40.605 40.7518 40.482 40.42C40.4238 40.2633 40.335 40.1198 40.2208 39.9978C40.1104 39.878 39.9771 39.7814 39.8289 39.7138C39.6611 39.6436 39.4805 39.6096 39.2987 39.6141H39.3063ZM42.5337 37.3114C42.5993 37.3302 42.658 37.3675 42.7028 37.4189C42.7577 37.4384 42.8076 37.4698 42.8488 37.511C42.89 37.5521 42.9215 37.602 42.941 37.6568C42.9665 37.7122 42.9797 37.7724 42.9797 37.8334C42.9797 37.8943 42.9665 37.9545 42.941 38.0099C42.9193 38.0614 42.888 38.1083 42.8488 38.148C42.802 38.1671 42.7529 38.18 42.7028 38.1864C42.5885 38.2274 42.4635 38.2274 42.3493 38.1864C42.2975 38.1652 42.2505 38.1339 42.2109 38.0944C42.1713 38.0549 42.14 38.0079 42.1188 37.9562C42.0932 37.9008 42.08 37.8406 42.08 37.7796C42.08 37.7187 42.0932 37.6585 42.1188 37.6031C42.1421 37.5502 42.1732 37.501 42.211 37.4573C42.2508 37.418 42.2977 37.3868 42.3493 37.3651C42.4059 37.3451 42.4668 37.3398 42.526 37.3498L42.5337 37.3114ZM42.8488 42.7917H42.2187V39.0921H42.8488V42.7917ZM46.6217 39.7215H45.0849V41.5099C45.081 41.6324 45.0992 41.7546 45.1387 41.8706C45.1715 41.9609 45.221 42.0442 45.2847 42.1162C45.3464 42.1762 45.4196 42.2231 45.4998 42.2544C45.5884 42.2866 45.6822 42.3022 45.7764 42.3005C45.9127 42.3012 46.048 42.2778 46.176 42.2314C46.3097 42.1834 46.4344 42.1134 46.5449 42.0241L46.8445 42.5C46.6964 42.6095 46.5334 42.6974 46.3604 42.761C46.1612 42.834 45.9503 42.8704 45.738 42.8684C45.5578 42.8698 45.3787 42.8413 45.2078 42.784C45.058 42.7291 44.9217 42.6428 44.8082 42.5307C44.6904 42.4098 44.6034 42.2624 44.5547 42.1009C44.4922 41.905 44.4637 41.7 44.4701 41.4945V39.6755H43.7017V39.0921H44.4701V37.9408H45.1002V39.0921H46.6371L46.6217 39.7215Z" fill="black"/>
<path d="M43.3096 10.3052H31.2761V31.9039H43.3096V10.3052Z" fill="#FF5F00"/>
<path d="M32.0749 21.0812C32.0804 19.0105 32.5554 16.9678 33.4644 15.1068C34.3734 13.2457 35.6927 11.6144 37.3232 10.3356C35.598 8.9879 33.5756 8.0712 31.4241 7.66174C29.2727 7.25229 27.0544 7.36192 24.954 7.98152C22.8535 8.60112 20.9315 9.71277 19.3479 11.224C17.7644 12.7352 16.565 14.6023 15.8495 16.6699C15.1341 18.7376 14.9233 20.946 15.2347 23.1114C15.5461 25.2768 16.3706 27.3366 17.6398 29.1195C18.909 30.9024 20.586 32.3568 22.5314 33.3617C24.4768 34.3666 26.6343 34.893 28.8245 34.897C31.9148 34.888 34.9108 33.8327 37.3232 31.9036C35.6829 30.6163 34.3578 28.9727 33.4484 27.0975C32.539 25.2223 32.0693 23.1648 32.0749 21.0812Z" fill="#EB001B"/>
<path d="M58.2629 29.6164V29.1712H58.4473V29.0868H57.9863V29.1712H58.1707V29.6164H58.2629ZM59.1466 29.6164V29.0791H59.0083L58.8392 29.4475L58.6778 29.0791H58.5395V29.6164H58.6394V29.2173L58.7931 29.5627H58.893L59.039 29.2096V29.6164H59.1466Z" fill="#F79E1B"/>
<path d="M45.8225 7.36531C42.7353 7.37021 39.7404 8.41696 37.3237 10.3357C38.956 11.6209 40.2753 13.259 41.1824 15.1268C42.0894 16.9947 42.5607 19.0437 42.5607 21.1197C42.5607 23.1957 42.0894 25.2447 41.1824 27.1126C40.2753 28.9804 38.956 30.6185 37.3237 31.9037C39.0489 33.2514 41.0714 34.1681 43.2228 34.5775C45.3743 34.987 47.5925 34.8774 49.693 34.2578C51.7934 33.6382 53.7154 32.5265 55.299 31.0153C56.8826 29.5041 58.082 27.637 58.7974 25.5693C59.5128 23.5017 59.7236 21.2933 59.4122 19.1279C59.1009 16.9625 58.2763 14.9026 57.0071 13.1197C55.738 11.3368 54.0609 9.88245 52.1155 8.87755C50.1701 7.87264 48.0126 7.34629 45.8225 7.34229" fill="#F79E1B"/>
</g>
</g>
<defs>
<clipPath id="clip0_1060_18183">
<rect width="53.7895" height="43.75" fill="white" transform="translate(10.4286 4.19531)"/>
</clipPath>
</defs>
</svg>
