<svg width="73" height="51" viewBox="0 0 73 51" fill="none" xmlns="http://www.w3.org/2000/svg">
<rect x="0.5" y="0.528809" width="72" height="49" rx="3.5" fill="white" stroke="#E4E4E7"/>
<path d="M46.2534 10.4453C54.1136 10.4454 60.4857 16.8839 60.4859 24.8262C60.4859 32.7687 54.1137 39.2079 46.2534 39.208C42.7304 39.208 39.5064 37.9141 37.021 35.7715C34.5357 37.9138 31.3124 39.208 27.7896 39.208C19.9292 39.208 13.5571 32.7687 13.5571 24.8262C13.5573 16.8838 19.9293 10.4453 27.7896 10.4453C31.3122 10.4453 34.5358 11.7387 37.021 13.8809C39.5063 11.7385 42.7306 10.4453 46.2534 10.4453Z" fill="#ED0006"/>
<path d="M46.2529 10.4453C54.1131 10.4453 60.4851 16.8838 60.4853 24.8262C60.4853 32.7687 54.1132 39.208 46.2529 39.208C42.7299 39.2079 39.5067 37.9131 37.0214 35.7705C40.0811 33.1327 42.0224 29.2087 42.0224 24.8262C42.0223 20.4436 40.0812 16.5195 37.0214 13.8818C39.5067 11.7394 42.73 10.4454 46.2529 10.4453Z" fill="#F9A000"/>
<path d="M37.021 13.8818C40.0809 16.5195 42.0218 20.4435 42.0219 24.8262C42.0219 29.2088 40.0807 33.1327 37.021 35.7705C33.9615 33.1327 32.021 29.2085 32.021 24.8262C32.0211 20.4438 33.9614 16.5195 37.021 13.8818Z" fill="#FF5E00"/>
</svg>
