<svg width="73" height="51" viewBox="0 0 73 51" fill="none" xmlns="http://www.w3.org/2000/svg">
<rect x="0.5" y="0.528809" width="72" height="49" rx="3.5" fill="white" stroke="#E4E4E7"/>
<path fill-rule="evenodd" clip-rule="evenodd" d="M22.1613 33.9003H17.7389L14.4226 21.2631C14.2652 20.6818 13.931 20.1679 13.4394 19.9256C12.2125 19.317 10.8606 18.8325 9.38571 18.5882V18.1017H16.5098C17.4931 18.1017 18.2305 18.8325 18.3534 19.6813L20.074 28.797L24.4943 18.1017H28.7937L22.1613 33.9003ZM31.2518 33.9003H27.0753L30.5144 18.1017H34.691L31.2518 33.9003ZM40.0945 22.4784C40.2174 21.6275 40.9548 21.1409 41.8151 21.1409C43.167 21.0188 44.6397 21.2631 45.8688 21.8697L46.6062 18.4682C45.3772 17.9816 44.0252 17.7373 42.7983 17.7373C38.7447 17.7373 35.795 19.9257 35.795 22.9628C35.795 25.2733 37.8843 26.4865 39.3592 27.2173C40.9548 27.9461 41.5693 28.4326 41.4464 29.1614C41.4464 30.2545 40.2174 30.741 38.9905 30.741C37.5156 30.741 36.0408 30.3766 34.691 29.768L33.9536 33.1716C35.4284 33.7782 37.024 34.0225 38.4989 34.0225C43.0441 34.1425 45.8688 31.9563 45.8688 28.6748C45.8688 24.5425 40.0945 24.3002 40.0945 22.4784V22.4784ZM60.4857 33.9003L57.1695 18.1017H53.6074C52.87 18.1017 52.1326 18.5882 51.8867 19.317L45.7459 33.9003H50.0453L50.9035 31.5919H56.1862L56.6778 33.9003H60.4857ZM54.2219 22.3562L55.4488 28.3105H52.0096L54.2219 22.3562Z" fill="#1D34CB"/>
</svg>
